<?xml version="1.0" encoding="UTF-8"?>
<!DOCTYPE svg PUBLIC "-//W3C//DTD SVG 1.1//EN" "http://www.w3.org/Graphics/SVG/1.1/DTD/svg11.dtd">
<!-- Creator: CorelDRAW X6 -->
<svg xmlns="http://www.w3.org/2000/svg" xml:space="preserve" width="210mm" height="297mm" version="1.1" style="shape-rendering:geometricPrecision; text-rendering:geometricPrecision; image-rendering:optimizeQuality; fill-rule:evenodd; clip-rule:evenodd"
viewBox="0 0 21000 29700"
 xmlns:xlink="http://www.w3.org/1999/xlink">
 <defs>
  <style type="text/css">
   <![CDATA[
    .fil0 {fill:#006CA9;fill-rule:nonzero}
   ]]>
  </style>
 </defs>
 <g id="Слой_x0020_1">
  <metadata id="CorelCorpID_0Corel-Layer"/>
  <path class="fil0" d="M-21293 10877c0,14968 12174,27143 27141,27143l0 448c13596,0 24653,-11059 24653,-24652 0,-12135 -9873,-22009 -22008,-22009l0 -447c-11069,0 -20076,9006 -20076,20076 0,9888 8046,17934 17935,17934 8826,0 16006,-7181 16006,-16007l449 0c0,-8116 -6604,-14719 -14720,-14719 -7256,0 -13157,5903 -13157,13159 0,6480 5271,11752 11750,11752 5783,0 10488,-4705 10488,-10488 0,-5156 -4194,-9349 -9348,-9349 -4591,0 -8325,3733 -8325,8324 0,4082 3320,7403 7401,7403l0 447 3 0c3870,0 7018,-3149 7018,-7020 0,-3459 -2811,-6274 -6272,-6274 -3089,0 -5602,2513 -5602,5602 0,2755 2241,4996 4997,4996 2456,0 4452,-1996 4452,-4451 0,-2187 -1778,-3963 -3962,-3963 -1942,0 -3521,1580 -3521,3521 0,1721 1399,3124 3124,3124 1527,0 2769,-1241 2769,-2767 0,-381 -97,-738 -254,-1059 80,221 135,454 135,700 0,106 -21,204 -33,305 0,1409 -1145,2557 -2554,2557 -1541,0 -2795,-1254 -2795,-2792 0,-1684 1371,-3053 3053,-3053 1843,0 3342,1499 3342,3342 0,2020 -1644,3664 -3663,3664 -2217,0 -4020,-1805 -4020,-4021 0,-2436 1981,-4416 4417,-4416 2678,0 4857,2178 4857,4858 0,2949 -2398,5347 -5347,5347 -3249,0 -5893,-2644 -5893,-5892 0,-3582 2916,-6498 6498,-6498 3953,0 7169,3217 7169,7170 0,4366 -3553,7916 -7915,7916l-3 0 0 448c-5068,0 -9194,-4125 -9194,-9194 0,-5578 4540,-10116 10118,-10116 6144,0 11140,4998 11140,11141 0,6770 -5508,12279 -12280,12279 -7466,0 -13542,-6077 -13542,-13543 0,-8244 6705,-14951 14949,-14951 9104,0 16511,7407 16511,16511l448 0c0,10307 -8386,18693 -18694,18693 -11371,0 -20621,-9250 -20621,-20620 0,-12553 10210,-22764 22762,-22764l0 -447c14111,0 25590,11480 25590,25591 0,15568 -12664,28235 -28235,28235l0 447c-8609,0 -16423,-3464 -22132,-9064 5977,7698 15316,12657 25817,12657 18045,0 32673,-14630 32673,-32674 0,-18047 -14628,-32675 -32673,-32675 -7145,0 -13750,2299 -19127,6190 -7115,5570 -11699,14229 -11699,23945z"/>
 </g>
</svg>
